<svg width="500" height="347" viewBox="0 0 500 347" fill="none" xmlns="http://www.w3.org/2000/svg">
<path d="M1.66797 16.2969C1.66797 8.44775 8.05282 2.0629 15.902 2.0629H483.368C491.218 2.0629 497.602 8.44778 497.602 16.2969V331.162C497.602 339.012 491.218 345.396 483.368 345.396H15.902C8.05282 345.396 1.66797 339.012 1.66797 331.162V16.2969ZM15.902 346.431H483.368C491.785 346.431 498.637 339.581 498.637 331.162V16.2969C498.637 7.87848 491.785 1.02823 483.368 1.02823H15.902C7.48349 1.02823 0.633301 7.87845 0.633301 16.2969V331.162C0.633301 339.582 7.48348 346.431 15.902 346.431Z" fill="white" stroke="#E0E0E0"/>
</svg>
